#!OML:ASF H:\Terrain\Patient Classification 1\Takeo\Monday\TakeoMonday.ASF
:FULLY-SPECIFIED
:DEGREES
1654
root 10.5476 17.8284 -0.133913 -5.19982 -11.4718 -0.335531
lowerback 3.5471 -4.13048 -2.29672
upperback 3.28325 -5.58302 1.27508
thorax 1.74285 -2.86391 2.68263
lowerneck -0.461333 -12.5275 -9.55674
upperneck 31.348 -20.0981 8.03151
head 12.2813 -9.59607 2.22845
rclavicle -1.56791e-014 -4.37326e-015
rhumerus -59.7125 30.4727 -92.7025
rradius 100.636
rwrist -18.2102
rhand -17.0636 25.1933
rfingers 7.12502
rthumb 9.17395 -4.58712
lclavicle -1.56791e-014 -4.37326e-015
lhumerus -39.8977 -1.66726 92.3627
lradius 49.7426
lwrist 38.7077
lhand -22.4121 26.6747
lfingers 7.12502
lthumb 4.01085 56.6167
rfemur 5.43141 4.80495 18.0946
rtibia 13.4732
rfoot -10.5542 -15.0647
rtoes -5.76823
lfemur 4.36578 0.456647 -22.5325
ltibia 18.4966
lfoot -16.925 21.1436
ltoes 0.789131
1655
root 10.5599 17.8177 -0.137655 -5.32704 -11.7699 -0.155342
lowerback 3.72406 -4.18209 -2.57546
upperback 3.35295 -5.6614 1.2
thorax 1.74163 -2.90928 2.77101
lowerneck -0.531987 -12.495 -9.10075
upperneck 31.4021 -20.0612 7.88499
head 12.2384 -9.54476 2.11185
rclavicle -1.37907e-015 -2.38542e-015
rhumerus -58.9361 30.6458 -92.76
rradius 98.2041
rwrist -18.4326
rhand -17.8761 24.1166
rfingers 7.12502
rthumb 8.38995 -5.69672
lclavicle -1.37907e-015 -2.38542e-015
lhumerus -39.8763 -1.7788 92.2687
lradius 49.6606
lwrist 38.7757
lhand -22.5644 26.5711
lfingers 7.12502
lthumb 3.86377 56.5158
rfemur 5.3665 4.94153 17.8737
rtibia 13.682
rfoot -10.5276 -14.9088
rtoes -6.36399
lfemur 4.5152 0.846617 -22.7671
ltibia 18.3823
lfoot -16.3152 21.4599
ltoes -1.16102
1656
root 10.5716 17.8145 -0.134558 -5.29593 -12.1546 -0.344909
lowerback 3.7409 -4.21667 -2.48337
upperback 3.39218 -5.70762 1.3119
thorax 1.7785 -2.93355 2.83457
lowerneck -0.453719 -12.4891 -8.98688
upperneck 31.4078 -20.0425 7.77722
head 12.1954 -9.54072 2.06637
rclavicle -5.77966e-014 3.57812e-015
rhumerus -58.2027 30.8316 -92.6278
rradius 95.7709
rwrist -18.5074
rhand -18.3108 22.9823
rfingers 7.12502
rthumb 7.97035 -6.84741
lclavicle -5.77966e-014 3.57812e-015
lhumerus -39.7995 -1.56751 92.2752
lradius 49.4653
lwrist 38.5672
lhand -22.6896 26.3717
lfingers 7.12502
lthumb 3.74287 56.3186
rfemur 5.27365 5.12775 18.055
rtibia 13.794
rfoot -10.5056 -14.7801
rtoes -6.22502
lfemur 4.59383 0.956124 -22.6165
ltibia 18.3479
lfoot -16.5579 21.6083
ltoes -0.0653658
1657
root 10.5762 17.8232 -0.133568 -5.16289 -12.6573 -0.784586
lowerback 3.74019 -4.17344 -2.18277
upperback 3.37105 -5.64589 1.54001
thorax 1.74645 -2.89918 2.90292
lowerneck -0.216575 -12.494 -9.22118
upperneck 31.4404 -20.0721 7.82618
head 12.2011 -9.58559 2.13025
rclavicle -2.71341e-014 7.95139e-015
rhumerus -57.5782 30.9751 -92.3884
rradius 93.1859
rwrist -18.4284
rhand -18.7849 22.382
rfingers 7.12502
rthumb 7.51282 -7.46456
lclavicle -2.71341e-014 7.95139e-015
lhumerus -39.7349 -1.54143 92.4369
lradius 49.0871
lwrist 38.531
lhand -22.8427 26.4118
lfingers 7.12502
lthumb 3.59502 56.3612
rfemur 5.12276 5.51521 18.5496
rtibia 13.7939
rfoot -10.3943 -14.7451
rtoes -5.80016
lfemur 4.56547 0.903608 -22.1326
ltibia 18.4252
lfoot -17.3942 21.5042
ltoes 2.68129
1658
root 10.582 17.8279 -0.138443 -5.11535 -13.0284 -0.767584
lowerback 3.80331 -4.18983 -2.38829
upperback 3.33911 -5.6753 1.63776
thorax 1.71133 -2.91916 3.12322
lowerneck 0.00244088 -12.4367 -9.52279
upperneck 31.4401 -20.0482 8.02161
head 12.2175 -9.60024 2.26336
rclavicle -2.5842e-014 4.77083e-015
rhumerus -56.8406 31.0734 -92.2688
rradius 90.5327
rwrist -18.1031
rhand -19.3829 22.2311
rfingers 7.12502
rthumb 6.93555 -7.63525
lclavicle -2.5842e-014 4.77083e-015
lhumerus -39.8381 -1.47956 92.6064
lradius 48.8485
lwrist 38.6701
lhand -23.0014 26.3766
lfingers 7.12502
lthumb 3.44178 56.3286
rfemur 4.95223 5.71943 18.5066
rtibia 13.7948
rfoot -10.262 -14.5997
rtoes -5.75793
lfemur 4.50987 1.1077 -22.1105
ltibia 18.4479
lfoot -17.7821 21.3081
ltoes 4.02843
